<?xml version="1.0" standalone="no"?>
<!DOCTYPE svg PUBLIC "-//W3C//DTD SVG 20010904//EN"
 "http://www.w3.org/TR/2001/REC-SVG-20010904/DTD/svg10.dtd">
<svg version="1.0" xmlns="http://www.w3.org/2000/svg"
 width="512.000000pt" height="512.000000pt" viewBox="0 0 512.000000 512.000000"
 preserveAspectRatio="xMidYMid meet">

<g transform="translate(0.000000,512.000000) scale(0.100000,-0.100000)"
fill="#000000" stroke="none">
<path d="M289 4921 c-109 -35 -199 -117 -253 -230 l-31 -66 0 -2065 0 -2065
32 -67 c54 -115 150 -199 262 -232 49 -14 275 -16 2261 -16 1999 0 2211 2
2261 16 115 34 207 115 262 232 l32 67 0 1665 0 1665 -23 58 c-45 110 -130
194 -241 239 l-56 23 -1195 3 -1195 3 -200 312 c-110 172 -217 331 -239 355
-23 25 -69 57 -114 80 l-76 37 -715 2 c-666 2 -720 1 -772 -16z m1471 -221
c49 -25 50 -26 285 -395 109 -170 211 -323 226 -340 l29 -30 1234 -5 1234 -5
44 -30 c25 -18 52 -49 65 -75 l23 -44 0 -1608 c0 -1429 -2 -1613 -15 -1646
-20 -47 -50 -79 -97 -103 -36 -19 -94 -19 -2228 -19 -2134 0 -2192 0 -2228 19
-47 24 -77 56 -97 103 -13 33 -15 255 -15 2040 0 1926 1 2005 19 2043 20 44
50 74 96 98 26 14 110 16 708 17 657 0 679 -1 717 -20z"/>
<path d="M2425 2436 c-302 -75 -421 -446 -215 -670 202 -219 545 -167 677 103
25 51 28 66 28 166 0 102 -2 115 -31 176 -55 116 -163 201 -292 228 -65 14
-102 13 -167 -3z m185 -237 c20 -12 49 -40 64 -62 24 -37 27 -50 24 -108 -3
-54 -9 -73 -31 -103 -86 -112 -258 -97 -320 27 -11 22 -19 58 -19 87 2 145
154 231 282 159z"/>
</g>
</svg>
